<svg xmlns="http://www.w3.org/2000/svg" width="860" height="240" viewBox="0 0 860 240" role="img" aria-labelledby="title desc">
  <title id="title">Ahmad Essam profile header</title>
  <desc id="desc">AI, machine learning and full-stack developer building reliable AI-powered products.</desc>
  <defs>
    <linearGradient id="frame" x1="0" y1="0" x2="1" y2="1">
      <stop offset="0" stop-color="#14233a"/>
      <stop offset="0.52" stop-color="#0c1718"/>
      <stop offset="1" stop-color="#12323d"/>
    </linearGradient>
    <linearGradient id="accent" x1="0" y1="0" x2="1" y2="0">
      <stop offset="0" stop-color="#58a6ff"/>
      <stop offset="0.5" stop-color="#2dd4bf"/>
      <stop offset="1" stop-color="#a78bfa"/>
    </linearGradient>
    <linearGradient id="mark" x1="0" y1="0" x2="1" y2="1">
      <stop offset="0" stop-color="#2563eb"/>
      <stop offset="1" stop-color="#2dd4bf"/>
    </linearGradient>
    <filter id="glow" x="-30%" y="-30%" width="160%" height="160%">
      <feGaussianBlur stdDeviation="14"/>
    </filter>
  </defs>
  <rect width="860" height="240" rx="22" fill="#070c12"/>
  <rect x="1" y="1" width="858" height="238" rx="21" fill="url(#frame)" stroke="#2f81f7"/>
  <circle cx="752" cy="58" r="82" fill="#2dd4bf" opacity="0.08" filter="url(#glow)"/>
  <circle cx="783" cy="189" r="60" fill="#a78bfa" opacity="0.08" filter="url(#glow)"/>
  <path d="M25 32h134" stroke="#2dd4bf" stroke-width="2"/>
  <text x="25" y="25" fill="#7dd3fc" font-family="Consolas,monospace" font-size="11" letter-spacing="2">PROFILE / BUILDING IN PUBLIC</text>
  <circle cx="112" cy="121" r="58" fill="#071019" stroke="#58a6ff" stroke-width="2"/>
  <circle cx="112" cy="121" r="49" fill="url(#mark)" opacity="0.22"/>
  <path d="M82 92h60v14h-23v13h23v14h-23v17H82v-14h23v-30H82z" fill="#e6edf3"/>
  <text x="190" y="77" fill="#8b949e" font-family="Consolas,monospace" font-size="14" font-weight="700" letter-spacing="2">@AHMAD-JOKER</text>
  <text x="190" y="121" fill="#f0f6fc" font-family="Segoe UI,Arial,sans-serif" font-size="43" font-weight="800">Ahmad Essam</text>
  <rect x="190" y="137" width="586" height="3" rx="2" fill="url(#accent)"/>
  <text x="190" y="162" fill="#c9d1d9" font-family="Segoe UI,Arial,sans-serif" font-size="15">AI / MACHINE LEARNING / FULL-STACK DEVELOPMENT</text>
  <text x="190" y="184" fill="#8b949e" font-family="Segoe UI,Arial,sans-serif" font-size="14">Building reliable AI-powered products · Alexandria, Egypt · Open to internships</text>
  <g font-family="Consolas,monospace" font-size="11" font-weight="700" text-anchor="middle">
    <rect x="190" y="199" width="91" height="26" rx="13" fill="#0d1623" stroke="#58a6ff"/>
    <text x="235.5" y="216" fill="#b6d7ff">Python</text>
    <rect x="289" y="199" width="91" height="26" rx="13" fill="#0d1623" stroke="#2dd4bf"/>
    <text x="334.5" y="216" fill="#a7f3d0">FastAPI</text>
    <rect x="388" y="199" width="105" height="26" rx="13" fill="#0d1623" stroke="#a78bfa"/>
    <text x="440.5" y="216" fill="#ddd6fe">Next.js</text>
    <rect x="501" y="199" width="91" height="26" rx="13" fill="#0d1623" stroke="#facc15"/>
    <text x="546.5" y="216" fill="#fef08a">AI / ML</text>
    <rect x="600" y="199" width="91" height="26" rx="13" fill="#0d1623" stroke="#4ade80"/>
    <text x="645.5" y="216" fill="#bbf7d0">Docker</text>
  </g>
  <circle cx="809" cy="31" r="4" fill="#58a6ff"/>
  <circle cx="824" cy="31" r="4" fill="#2dd4bf"/>
</svg>
