<svg xmlns="http://www.w3.org/2000/svg" width="420" height="210" viewBox="0 0 420 210" role="img" aria-labelledby="title desc">
  <title id="title">Task API</title><desc id="desc">FastAPI backend with structured LLM triage and 37 focused tests.</desc>
  <defs><linearGradient id="bg" x1="0" y1="0" x2="1" y2="1"><stop stop-color="#14233a"/><stop offset="1" stop-color="#092c35"/></linearGradient></defs>
  <rect width="420" height="210" rx="18" fill="#070c12"/><rect x="1" y="1" width="418" height="208" rx="17" fill="url(#bg)" stroke="#58a6ff"/>
  <rect x="1" y="1" width="418" height="37" rx="17" fill="#172d49"/><path d="M1 38h418" stroke="#58a6ff" opacity=".65"/>
  <circle cx="20" cy="20" r="4" fill="#58a6ff"/><text x="32" y="24" fill="#bfdbfe" font-family="Consolas,monospace" font-size="11">BACKEND / LLM TRIAGE</text>
  <circle cx="391" cy="20" r="5" fill="#4ade80"/>
  <text x="20" y="71" fill="#f0f6fc" font-family="Segoe UI,Arial,sans-serif" font-size="20" font-weight="800">Task API</text>
  <text x="20" y="99" fill="#bac8d8" font-family="Segoe UI,Arial,sans-serif" font-size="12">CRUD, Supabase auth, Docker and structured</text>
  <text x="20" y="116" fill="#bac8d8" font-family="Segoe UI,Arial,sans-serif" font-size="12">LLM support-ticket classification.</text>
  <g font-family="Consolas,monospace" font-size="9" text-anchor="middle"><rect x="20" y="139" width="61" height="22" rx="11" fill="#101e31" stroke="#326ba6"/><text x="50.5" y="153" fill="#93c5fd">fastapi</text><rect x="88" y="139" width="61" height="22" rx="11" fill="#101e31" stroke="#326ba6"/><text x="118.5" y="153" fill="#93c5fd">docker</text><rect x="156" y="139" width="41" height="22" rx="11" fill="#101e31" stroke="#326ba6"/><text x="176.5" y="153" fill="#93c5fd">llm</text></g>
  <text x="20" y="190" fill="#8b949e" font-family="Consolas,monospace" font-size="10">focused auth + triage suites</text>
  <circle cx="363" cy="151" r="29" fill="#071019" stroke="#58a6ff" stroke-width="7"/><text x="363" y="149" fill="#f0f6fc" text-anchor="middle" font-family="Segoe UI,Arial,sans-serif" font-size="16" font-weight="800">37</text><text x="363" y="164" fill="#8b949e" text-anchor="middle" font-family="Consolas,monospace" font-size="8">TESTS</text>
</svg>
